<svg xmlns="http://www.w3.org/2000/svg" viewBox="0 0 100 36">
  <g fill="#fff" aria-label="Zebra Design System Web Components">
    <path d="M6.25 9.12H.31V8.3l4.51-6.79H.46V.55h5.67v.82L1.62 8.16h4.63zm3.97-6.55q.83 0 1.42.36.6.36.91 1.02.33.65.33 1.52v.64h-4.4q.02 1.09.54 1.67.54.56 1.5.56.62 0 1.08-.1.48-.13.99-.34v.92q-.5.22-.97.31-.48.11-1.14.11-.92 0-1.62-.37-.7-.37-1.1-1.1-.38-.75-.38-1.82 0-1.05.35-1.81.36-.76 1-1.16.64-.41 1.5-.41zm0 .86q-.76 0-1.2.5-.44.47-.52 1.34h3.27q-.01-.82-.38-1.32-.37-.52-1.18-.52zm5.34-1.21q0 .4-.02.77-.01.35-.04.55h.06q.28-.4.76-.68t1.24-.28q1.2 0 1.92.84.73.83.73 2.48 0 1.66-.73 2.5-.74.84-1.92.84-.76 0-1.24-.28-.48-.27-.76-.66h-.08l-.22.82h-.75V0h1.05zm1.82 1.24q-1.02 0-1.42.58-.4.6-.4 1.83v.05q0 1.18.39 1.82.4.62 1.45.62.86 0 1.28-.63.44-.64.44-1.84 0-2.43-1.74-2.43zm7.51-.89.38.02q.22.01.37.05l-.13.97-.35-.06-.34-.02q-.5 0-.93.27-.43.27-.7.76-.25.48-.25 1.13v3.43H21.9V2.69h.86l.12 1.17h.05q.31-.52.8-.9.5-.4 1.17-.4zm4.15.01q1.18 0 1.74.52.56.51.56 1.64v4.38h-.76l-.2-.91h-.06q-.42.53-.88.78t-1.28.25q-.87 0-1.45-.46-.57-.46-.57-1.45 0-.96.75-1.47.76-.53 2.33-.58l1.1-.04v-.38q0-.8-.36-1.12-.34-.3-.98-.3-.5 0-.96.15-.46.14-.85.33l-.33-.79q.42-.23 1-.38.58-.17 1.2-.17zm.31 3.43q-1.2.05-1.67.39-.45.33-.45.94 0 .54.32.8.34.25.85.25.82 0 1.36-.45.54-.45.54-1.39v-.57zM8.04 16.75q0 2.17-1.24 3.28-1.22 1.09-3.44 1.09H.94v-8.57h2.68q1.35 0 2.33.48 1 .48 1.54 1.42.55.92.55 2.3zm-1.88.05q0-1.43-.63-2.09-.62-.67-1.81-.67h-.97v5.58h.78q2.63 0 2.63-2.82zm6.21-2.35q1.36 0 2.15.78.8.77.8 2.2v.86h-4.23q.02.75.44 1.19.43.43 1.19.43.64 0 1.15-.12.52-.13 1.07-.4v1.38q-.48.24-1.02.35-.53.12-1.28.12-.99 0-1.74-.36-.76-.37-1.2-1.12-.42-.74-.42-1.87 0-1.15.38-1.9.4-.77 1.1-1.16.69-.38 1.61-.38zm.01 1.27q-.51 0-.86.34-.34.33-.4 1.04h2.51q-.01-.6-.31-.98-.3-.4-.94-.4zm8.96 3.46q0 1-.71 1.53-.7.53-2.09.53-.68 0-1.18-.1-.49-.08-.98-.28v-1.48q.53.24 1.14.4.61.15 1.08.15.53 0 .74-.15.23-.16.23-.41 0-.17-.1-.3-.08-.13-.38-.3-.3-.17-.93-.43-.62-.27-1.01-.52-.4-.26-.59-.62-.2-.38-.2-.93 0-.91.72-1.37.7-.45 1.88-.45.61 0 1.16.12.56.12 1.14.4l-.54 1.28q-.48-.2-.9-.34-.44-.14-.88-.14-.8 0-.8.43 0 .16.1.29.1.12.4.26.3.15.87.39.57.22.97.48.41.24.63.6.23.37.23.96zM23.63 12q.4 0 .68.2.29.17.29.68 0 .49-.29.68-.29.2-.68.2-.41 0-.7-.2-.27-.2-.27-.68 0-.5.27-.69.29-.19.7-.19zm.89 2.57v6.55h-1.8v-6.55zm3.99-.12q1.21 0 1.9.96h.05l.14-.84h1.51v6.56q0 1.4-.83 2.14-.82.73-2.44.73-.7 0-1.3-.08-.59-.09-1.15-.3v-1.43q1.21.5 2.55.5 1.38 0 1.38-1.49v-.13l.02-.42.03-.38h-.05q-.33.51-.8.74-.47.23-1.06.23-1.16 0-1.82-.89-.65-.9-.65-2.5t.67-2.5q.68-.9 1.85-.9zm.57 1.45q-1.26 0-1.26 1.98 0 1.96 1.28 1.96.68 0 1-.39.34-.4.34-1.37v-.21q0-1.06-.32-1.51-.32-.46-1.04-.46zm8.62-1.45q1.06 0 1.7.57.63.57.63 1.83v4.27h-1.79v-3.83q0-.7-.25-1.05-.25-.36-.8-.36-.82 0-1.12.56-.3.55-.3 1.6v3.08h-1.79v-6.55h1.37l.24.84h.1q.31-.5.85-.73.55-.23 1.16-.23z" />
    <path d="M47.04 18.74q0 1.14-.83 1.83-.82.67-2.33.67-1.35 0-2.42-.52v-1.69q.61.27 1.26.5.66.21 1.3.21.68 0 .95-.25.3-.27.3-.66 0-.33-.24-.55-.21-.23-.58-.42l-.86-.44q-.3-.14-.64-.33-.35-.2-.68-.5-.3-.3-.51-.71-.2-.42-.2-1.01 0-1.15.77-1.79.78-.65 2.13-.65.67 0 1.27.16.61.15 1.27.44l-.59 1.42q-.58-.24-1.05-.37-.47-.14-.96-.14-.52 0-.8.24-.27.24-.27.63 0 .45.4.72.42.26 1.22.65.66.3 1.12.64.46.34.72.8.25.45.25 1.12z" />
    <path d="M48.03 14.57h1.95l1.24 3.68q.1.27.14.55.05.28.07.6h.04q.04-.32.1-.6l.15-.55 1.21-3.68h1.92l-2.77 7.39q-.37 1.02-1.09 1.52-.7.52-1.64.52-.3 0-.53-.04-.22-.02-.39-.06v-1.4l.32.05q.19.02.4.02.56 0 .88-.35.34-.33.5-.81l.1-.33zm12.33 4.61q0 1-.7 1.53t-2.1.53q-.68 0-1.17-.1-.5-.08-.98-.28v-1.48q.52.24 1.14.4.6.15 1.08.15.52 0 .74-.15.23-.16.23-.41 0-.17-.1-.3-.08-.13-.38-.3-.3-.17-.94-.43-.61-.27-1-.52-.4-.26-.6-.62-.19-.38-.19-.93 0-.91.71-1.37.71-.45 1.89-.45.6 0 1.16.12.55.12 1.14.4l-.54 1.28q-.48-.2-.91-.34-.43-.14-.88-.14-.79 0-.79.43 0 .16.1.29.1.12.4.26.3.15.87.39.56.22.97.48.4.24.62.6.23.37.23.96zm4.15.63q.3 0 .58-.06.28-.06.55-.14v1.33q-.29.12-.72.2-.42.1-.92.1-.59 0-1.06-.2-.45-.18-.73-.65-.26-.48-.26-1.32V15.9h-.86v-.75l.99-.6.51-1.38h1.14v1.39h1.84v1.34h-1.84v3.16q0 .37.22.56.22.18.56.18zm5.15-5.36q1.36 0 2.15.78.8.77.8 2.2v.86h-4.23q.02.75.44 1.19.43.43 1.19.43.64 0 1.15-.12.52-.13 1.07-.4v1.38q-.48.24-1.02.35-.53.12-1.28.12-.99 0-1.74-.36-.76-.37-1.2-1.12-.42-.74-.42-1.87 0-1.15.38-1.9.4-.77 1.1-1.16.69-.38 1.61-.38zm.01 1.27q-.51 0-.86.34-.34.33-.4 1.04h2.51q-.01-.6-.31-.98-.3-.4-.94-.4zm12.08-1.27q1.11 0 1.68.57.57.57.57 1.83v4.27h-1.79v-3.83q0-1.41-.98-1.41-.7 0-1 .5-.3.5-.3 1.45v3.29h-1.8v-3.83q0-1.41-.98-1.41-.74 0-1.03.56-.28.55-.28 1.6v3.08h-1.79v-6.55h1.37l.24.84h.1q.3-.5.81-.73.53-.23 1.1-.23.72 0 1.22.24.5.23.77.72h.15q.3-.5.83-.73.54-.23 1.1-.23z" />
    <path d="m10.86 24.55-2.28 8.57h-1.1L5.83 27.5l-.2-.7-.15-.6-.08-.39q-.01.16-.13.67-.11.5-.28 1.06l-1.62 5.58h-1.1L0 24.55h1.13l1.33 5.23q.14.56.24 1.07l.17.97q.06-.46.18-1.02.12-.55.27-1.08l1.52-5.17h1.11l1.57 5.21q.17.55.3 1.1.11.54.17.96.06-.44.17-.96.1-.52.25-1.09l1.32-5.22z" />
    <path d="M13.48 26.57q.83 0 1.42.36.6.36.9 1.02.33.65.33 1.52v.64h-4.4q.02 1.09.55 1.67.54.56 1.5.56.61 0 1.08-.1.48-.13.98-.34v.92q-.49.22-.97.31-.48.11-1.14.11-.91 0-1.62-.37-.7-.37-1.09-1.1-.38-.75-.38-1.82 0-1.05.34-1.81.36-.76 1-1.16.65-.41 1.5-.41zm-.01.86q-.76 0-1.2.5-.43.47-.52 1.34h3.28q-.01-.82-.39-1.32-.37-.52-1.17-.52zm5.35-1.21q0 .4-.02.77l-.04.55h.06q.28-.4.76-.68t1.23-.28q1.2 0 1.92.84.73.83.73 2.48 0 1.66-.73 2.5-.73.84-1.92.84-.75 0-1.23-.28-.48-.27-.76-.66h-.08l-.22.82h-.76V24h1.06zm1.81 1.24q-1.02 0-1.41.58-.4.6-.4 1.83v.05q0 1.18.38 1.82.4.62 1.46.62.86 0 1.28-.63.43-.64.43-1.84 0-2.43-1.74-2.43zm11.45-2.08q-1.38 0-2.17.92-.8.93-.8 2.54 0 1.6.74 2.53.74.92 2.22.92.56 0 1.07-.1.5-.09.98-.23v.93q-.48.18-1 .27-.5.08-1.2.08-1.32 0-2.2-.54-.87-.54-1.31-1.54-.43-1-.43-2.34 0-1.3.46-2.28.48-1 1.4-1.54.93-.57 2.25-.57 1.36 0 2.37.5l-.44.92q-.4-.18-.88-.33-.48-.14-1.06-.14zm9.36 4.52q0 1.59-.82 2.46-.8.88-2.18.88-.85 0-1.52-.38-.66-.4-1.05-1.14-.38-.76-.38-1.83 0-1.6.8-2.46.8-.86 2.19-.86.87 0 1.53.4.67.38 1.05 1.12.38.73.38 1.8zm-4.86 0q0 1.13.44 1.8.46.66 1.44.66t1.43-.66q.46-.67.46-1.8 0-1.15-.46-1.8-.45-.64-1.44-.64-.98 0-1.43.64-.44.65-.44 1.8zm13.58-3.33q1.1 0 1.64.56.54.55.54 1.8v4.19h-1.05v-4.14q0-1.52-1.3-1.52-.94 0-1.35.54-.4.54-.4 1.57v3.55H47.2v-4.14q0-1.52-1.32-1.52-.97 0-1.34.6-.38.6-.38 1.72v3.34h-1.05v-6.43h.85l.16.87h.06q.3-.5.8-.74.52-.25 1.1-.25 1.5 0 1.96 1.08h.06q.32-.55.88-.82.56-.26 1.18-.26zm7.23 0q1.19 0 1.9.83.74.82.74 2.5 0 1.64-.73 2.49-.72.85-1.92.85-.75 0-1.24-.28-.48-.28-.76-.66h-.07q.03.2.05.52l.02.54V36h-1.05v-9.31h.86l.15.87h.04q.3-.42.76-.7.47-.3 1.25-.3zm-.2.89q-.98 0-1.39.55-.4.55-.42 1.68v.2q0 1.19.39 1.84.4.63 1.45.63.59 0 .96-.32.38-.32.56-.88.2-.56.2-1.28 0-1.1-.44-1.76-.42-.66-1.3-.66zM67.3 29.9q0 1.59-.82 2.46-.8.88-2.18.88-.85 0-1.52-.38-.66-.4-1.05-1.14-.38-.76-.38-1.83 0-1.6.8-2.46.8-.86 2.19-.86.87 0 1.53.4.67.38 1.05 1.12.38.73.38 1.8zm-4.86 0q0 1.13.44 1.8.46.66 1.44.66t1.43-.66q.46-.67.46-1.8 0-1.15-.46-1.8-.45-.64-1.44-.64-.98 0-1.43.64-.44.65-.44 1.8zm9.62-3.33q1.16 0 1.74.56.6.55.6 1.8v4.19h-1.05V29q0-1.54-1.44-1.54-1.07 0-1.48.6-.4.6-.4 1.72v3.34h-1.06v-6.43h.85l.16.87h.06q.3-.5.86-.74.55-.25 1.16-.25zm6.81 0q.83 0 1.41.36.6.36.92 1.02.32.65.32 1.52v.64h-4.4q.02 1.09.55 1.67.54.56 1.5.56.61 0 1.08-.1.48-.13.98-.34v.92q-.49.22-.97.31-.48.11-1.14.11-.91 0-1.62-.37-.7-.37-1.1-1.1-.38-.75-.38-1.82 0-1.05.35-1.81.36-.76 1-1.16.65-.41 1.5-.41zm-.01.86q-.76 0-1.2.5-.44.47-.52 1.34h3.28q-.02-.82-.39-1.32-.37-.52-1.17-.52zm7.39-.86q1.15 0 1.74.56.59.55.59 1.8v4.19h-1.05V29q0-1.54-1.44-1.54-1.07 0-1.47.6-.41.6-.41 1.72v3.34h-1.06v-6.43H84l.16.87h.06q.31-.5.86-.74.56-.25 1.17-.25zm6.47 5.81q.24 0 .49-.04.25-.05.4-.1v.8q-.16.1-.47.14-.32.06-.6.06-.5 0-.94-.17-.42-.18-.68-.61-.27-.43-.27-1.21V27.5h-.91V27l.92-.42.42-1.37h.63v1.48h1.86v.81H91.7v3.72q0 .6.27.88.3.28.74.28zm6.37-1.04q0 .94-.7 1.42t-1.87.48q-.67 0-1.16-.1-.48-.12-.86-.3v-.97q.39.2.93.36.55.16 1.11.16.8 0 1.17-.25.36-.27.36-.7 0-.24-.13-.43-.14-.2-.48-.39-.34-.19-.98-.43-.62-.24-1.06-.48-.45-.24-.69-.57-.24-.34-.24-.87 0-.81.66-1.26.67-.44 1.75-.44.6 0 1.1.12.51.1.96.31l-.36.84q-.41-.17-.86-.29-.44-.12-.9-.12-.66 0-1 .22-.34.2-.34.56 0 .27.16.46.15.18.51.36.37.17.99.4.6.23 1.04.47.43.24.66.6.23.33.23.84z" />
  </g>
</svg>