<?xml version="1.0" encoding="UTF-8"?>
<svg xmlns="http://www.w3.org/2000/svg" viewBox="0 0 93.66 34.21">
  <g fill="#231f20" aria-label="Zebra Design System Web Components">
    <path d="m.41,8v-.83L4.91.89H.41v-.89h5.78v.83L1.68,7.11h4.59v.89H.41Z" />
    <path
      d="m7.42,5.1c0-1.68,1.2-3.03,2.85-3.03,1.75,0,2.78,1.37,2.78,3.11v.23h-4.68c.07,1.09.83,2,2.08,2,.67,0,1.33-.26,1.8-.74l.43.59c-.59.58-1.37.9-2.3.9-1.73,0-2.96-1.24-2.96-3.05Zm2.84-2.29c-1.24,0-1.85,1.04-1.9,1.92h3.8c-.01-.85-.59-1.92-1.91-1.92Z" />
    <path
      d="m14.51,8V0h.9v3.08c.47-.63,1.18-1.02,1.96-1.02,1.52,0,2.58,1.19,2.58,3.05s-1.07,3.03-2.58,3.03c-.82,0-1.52-.42-1.96-1.01v.86h-.9Zm2.64-.66c1.16,0,1.86-.95,1.86-2.23s-.7-2.24-1.86-2.24c-.72,0-1.43.43-1.74.94v2.63c.31.5,1.02.91,1.74.91Z" />
    <path
      d="m21.41,8V2.21h.9v.92c.47-.6,1.14-1.06,1.93-1.06v.92c-.11-.01-.22-.02-.35-.02-.56,0-1.32.46-1.58.92v4.1h-.9Z" />
    <path
      d="m28.99,8v-.66c-.47.53-1.14.8-1.92.8-.97,0-2.01-.66-2.01-1.92s1.03-1.91,2.01-1.91c.79,0,1.45.25,1.92.78v-1.04c0-.77-.62-1.21-1.46-1.21-.7,0-1.26.24-1.77.8l-.42-.62c.62-.65,1.37-.96,2.31-.96,1.24,0,2.24.55,2.24,1.95v3.98h-.9Zm0-1.22v-1.1c-.35-.47-.96-.71-1.58-.71-.85,0-1.44.53-1.44,1.26s.59,1.27,1.44,1.27c.62,0,1.24-.24,1.58-.72Z" />
    <path
      d="m.62,20v-8h3.15c2.51,0,4.25,1.6,4.25,4.01s-1.74,3.99-4.25,3.99H.62Zm1.7-1.5h1.45c1.58,0,2.51-1.14,2.51-2.5s-.86-2.51-2.51-2.51h-1.45v5Z" />
    <path
      d="m11.83,14.06c1.73,0,2.9,1.29,2.9,3.19v.34h-4.31c.1.73.68,1.34,1.67,1.34.54,0,1.18-.22,1.55-.58l.67.98c-.59.54-1.49.8-2.39.8-1.76,0-3.09-1.19-3.09-3.05,0-1.68,1.24-3.03,3-3.03Zm-1.43,2.49h2.85c-.04-.55-.42-1.28-1.43-1.28-.95,0-1.36.71-1.43,1.28Z" />
    <path
      d="m16,18.18c.42.4,1.28.79,2,.79.66,0,.97-.23.97-.59,0-.41-.5-.55-1.16-.68-1-.19-2.28-.43-2.28-1.81,0-.97.85-1.82,2.37-1.82.98,0,1.76.33,2.33.79l-.6,1.04c-.35-.37-1.01-.67-1.71-.67-.55,0-.91.2-.91.54,0,.36.46.49,1.1.62,1,.19,2.33.46,2.33,1.9,0,1.07-.9,1.86-2.51,1.86-1.01,0-1.98-.34-2.59-.9l.66-1.07Z" />
    <path
      d="m21.41,12.44c0-.5.42-.91.91-.91s.91.41.91.91-.41.91-.91.91-.91-.41-.91-.91Zm.16,7.56v-5.79h1.52v5.79h-1.52Z" />
    <path
      d="m25.16,20.38c.47.52,1.08.72,1.81.72s1.6-.32,1.6-1.46v-.59c-.46.58-1.08.91-1.79.91-1.45,0-2.55-1.02-2.55-2.95s1.09-2.95,2.55-2.95c.7,0,1.32.3,1.79.89v-.74h1.54v5.4c0,2.21-1.7,2.75-3.13,2.75-1,0-1.77-.23-2.49-.86l.68-1.1Zm3.41-4.31c-.25-.38-.8-.66-1.31-.66-.86,0-1.46.6-1.46,1.6s.6,1.59,1.46,1.59c.5,0,1.06-.29,1.31-.66v-1.87Z" />
    <path
      d="m35.53,20v-3.5c0-.8-.42-1.08-1.07-1.08-.6,0-1.07.34-1.32.68v3.9h-1.52v-5.79h1.52v.76c.37-.44,1.08-.9,2.03-.9,1.27,0,1.88.72,1.88,1.85v4.09h-1.52Z" />
    <path
      d="m42.06,17.58c.56.59,1.44,1.08,2.54,1.08.94,0,1.39-.44,1.39-.9,0-.6-.7-.8-1.62-1.02-1.31-.3-2.99-.66-2.99-2.45,0-1.33,1.15-2.41,3.03-2.41,1.27,0,2.33.38,3.12,1.12l-.95,1.25c-.65-.6-1.51-.88-2.29-.88s-1.18.34-1.18.82c0,.54.67.71,1.6.92,1.32.3,3,.7,3,2.47,0,1.46-1.04,2.57-3.2,2.57-1.54,0-2.64-.52-3.39-1.27l.94-1.29Z" />
    <path
      d="m48.78,20.9c.13.06.34.1.48.1.4,0,.66-.11.8-.42l.22-.49-2.35-5.88h1.63l1.51,4.03,1.51-4.03h1.64l-2.72,6.74c-.43,1.09-1.2,1.38-2.19,1.4-.18,0-.56-.04-.76-.08l.23-1.37Z" />
    <path
      d="m55.07,18.18c.42.4,1.28.79,2,.79.66,0,.97-.23.97-.59,0-.41-.5-.55-1.16-.68-1-.19-2.28-.43-2.28-1.81,0-.97.85-1.82,2.37-1.82.98,0,1.76.33,2.33.79l-.6,1.04c-.35-.37-1.01-.67-1.71-.67-.55,0-.91.2-.91.54,0,.36.46.49,1.1.62,1,.19,2.33.46,2.33,1.9,0,1.07-.9,1.86-2.51,1.86-1.01,0-1.98-.34-2.59-.9l.66-1.07Z" />
    <path
      d="m60.93,18.56v-3.02h-.96v-1.33h.96v-1.58h1.54v1.58h1.18v1.33h-1.18v2.61c0,.36.19.64.53.64.23,0,.44-.08.53-.17l.32,1.15c-.23.2-.64.37-1.27.37-1.07,0-1.64-.55-1.64-1.58Z" />
    <path
      d="m67.32,14.06c1.73,0,2.9,1.29,2.9,3.19v.34h-4.31c.1.73.68,1.34,1.67,1.34.54,0,1.18-.22,1.55-.58l.67.98c-.59.54-1.49.8-2.39.8-1.76,0-3.09-1.19-3.09-3.05,0-1.68,1.24-3.03,3-3.03Zm-1.43,2.49h2.85c-.04-.55-.42-1.28-1.43-1.28-.95,0-1.36.71-1.43,1.28Z" />
    <path
      d="m78.51,20v-3.66c0-.54-.24-.92-.86-.92-.54,0-.98.36-1.2.67v3.91h-1.54v-3.66c0-.54-.24-.92-.86-.92-.53,0-.97.36-1.2.68v3.9h-1.52v-5.79h1.52v.76c.24-.35,1.01-.9,1.9-.9s1.39.4,1.61,1.05c.34-.53,1.1-1.05,1.99-1.05,1.07,0,1.7.56,1.7,1.75v4.19h-1.54Z" />
    <path
      d="m6.88,32l-1.76-6.45-1.76,6.45h-1.08L0,24h1.1l1.77,6.67,1.83-6.67h.83l1.83,6.67,1.76-6.67h1.12l-2.29,8h-1.08Z" />
    <path
      d="m10.51,29.1c0-1.68,1.2-3.03,2.85-3.03,1.75,0,2.78,1.37,2.78,3.11v.23h-4.68c.07,1.09.83,2,2.08,2,.67,0,1.33-.26,1.8-.74l.43.59c-.59.58-1.37.9-2.3.9-1.73,0-2.96-1.24-2.96-3.05Zm2.84-2.29c-1.24,0-1.85,1.04-1.9,1.92h3.8c-.01-.85-.59-1.92-1.91-1.92Z" />
    <path
      d="m17.6,32v-8h.9v3.08c.47-.63,1.18-1.02,1.96-1.02,1.52,0,2.58,1.19,2.58,3.05s-1.07,3.03-2.58,3.03c-.82,0-1.52-.42-1.96-1.01v.86h-.9Zm2.64-.66c1.16,0,1.86-.95,1.86-2.23s-.7-2.24-1.86-2.24c-.72,0-1.43.43-1.74.94v2.63c.31.5,1.02.91,1.74.91Z" />
    <path
      d="m27.32,28.01c0-2.46,1.81-4.14,4.11-4.14,1.42,0,2.4.67,3.03,1.58l-.83.47c-.46-.68-1.3-1.16-2.21-1.16-1.75,0-3.08,1.33-3.08,3.25s1.33,3.25,3.08,3.25c.91,0,1.75-.49,2.21-1.16l.84.46c-.67.92-1.63,1.59-3.05,1.59-2.3,0-4.11-1.68-4.11-4.14Z" />
    <path
      d="m35.39,29.1c0-1.68,1.1-3.03,2.87-3.03s2.87,1.35,2.87,3.03-1.1,3.05-2.87,3.05-2.87-1.37-2.87-3.05Zm4.79,0c0-1.18-.68-2.23-1.92-2.23s-1.92,1.06-1.92,2.23.68,2.24,1.92,2.24,1.92-1.05,1.92-2.24Z" />
    <path
      d="m49.58,32v-3.93c0-.73-.31-1.2-1.07-1.2-.6,0-1.24.42-1.54.89v4.25h-.9v-3.93c0-.73-.3-1.2-1.07-1.2-.59,0-1.21.43-1.52.9v4.23h-.9v-5.79h.9v.84c.25-.37,1.02-.98,1.88-.98s1.38.48,1.55,1.08c.32-.53,1.1-1.08,1.94-1.08,1.06,0,1.62.59,1.62,1.75v4.19h-.9Z" />
    <path
      d="m53.18,31.12v3.08h-.9v-8h.9v.86c.42-.59,1.14-1.01,1.96-1.01,1.52,0,2.58,1.15,2.58,3.03s-1.06,3.05-2.58,3.05c-.79,0-1.48-.38-1.96-1.02Zm3.59-2.03c0-1.28-.7-2.23-1.86-2.23-.71,0-1.42.42-1.73.92v2.61c.31.5,1.02.94,1.73.94,1.16,0,1.86-.96,1.86-2.24Z" />
    <path
      d="m58.81,29.1c0-1.68,1.1-3.03,2.87-3.03s2.87,1.35,2.87,3.03-1.1,3.05-2.87,3.05-2.87-1.37-2.87-3.05Zm4.79,0c0-1.18-.68-2.23-1.92-2.23s-1.92,1.06-1.92,2.23.68,2.24,1.92,2.24,1.92-1.05,1.92-2.24Z" />
    <path
      d="m69.93,32v-3.79c0-1.03-.53-1.34-1.31-1.34-.71,0-1.37.43-1.72.9v4.23h-.9v-5.79h.9v.84c.41-.49,1.2-.98,2.08-.98,1.2,0,1.83.61,1.83,1.87v4.07h-.89Z" />
    <path
      d="m72.3,29.1c0-1.68,1.2-3.03,2.85-3.03,1.75,0,2.78,1.37,2.78,3.11v.23h-4.68c.07,1.09.83,2,2.08,2,.67,0,1.33-.26,1.8-.74l.43.59c-.59.58-1.37.9-2.3.9-1.73,0-2.96-1.24-2.96-3.05Zm2.84-2.29c-1.24,0-1.85,1.04-1.9,1.92h3.8c-.01-.85-.59-1.92-1.91-1.92Z" />
    <path
      d="m83.31,32v-3.79c0-1.03-.53-1.34-1.31-1.34-.71,0-1.37.43-1.72.9v4.23h-.9v-5.79h.9v.84c.41-.49,1.2-.98,2.08-.98,1.2,0,1.83.61,1.83,1.87v4.07h-.89Z" />
    <path
      d="m86.19,30.79v-3.79h-.96v-.79h.96v-1.58h.91v1.58h1.18v.79h-1.18v3.6c0,.43.19.74.58.74.26,0,.49-.12.61-.25l.26.68c-.23.22-.55.37-1.07.37-.86,0-1.29-.49-1.29-1.36Z" />
    <path
      d="m89.05,31.23l.46-.65c.38.44,1.12.83,1.91.83.89,0,1.38-.42,1.38-1,0-1.4-3.59-.54-3.59-2.69,0-.91.77-1.67,2.15-1.67,1,0,1.69.37,2.15.84l-.42.62c-.35-.42-.97-.73-1.73-.73s-1.28.4-1.28.91c0,1.26,3.59.43,3.59,2.69,0,.97-.78,1.75-2.27,1.75-.96,0-1.75-.3-2.34-.91Z" />
  </g>
</svg>